<?xml version="1.0" encoding="utf-8"?>
<!-- Generator: Adobe Illustrator 16.0.0, SVG Export Plug-In . SVG Version: 6.00 Build 0)  -->
<!DOCTYPE svg PUBLIC "-//W3C//DTD SVG 1.1//EN" "http://www.w3.org/Graphics/SVG/1.1/DTD/svg11.dtd">
<svg version="1.1" id="Layer_1" xmlns="http://www.w3.org/2000/svg" xmlns:xlink="http://www.w3.org/1999/xlink" x="0px" y="0px"
	 width="792px" height="252.381px" viewBox="0 0 792 252.381" enable-background="new 0 0 792 252.381" xml:space="preserve">
<rect x="44.232" y="108.385" fill="#00517E" width="12.813" height="74.069"/>
<path fill="#00517E" d="M117.339,130.542h12.4v52.238h-12.191l-0.631-7.628c-2.97,6.146-11.121,9.11-16.954,9.22
	c-15.47,0.104-26.917-9.438-26.917-27.766c0-18.006,11.978-27.442,27.235-27.338c6.993,0,13.666,3.286,16.636,8.479L117.339,130.542
	z M85.972,156.606c0,9.968,6.89,15.901,15.471,15.901c20.342,0,20.342-31.689,0-31.689
	C92.862,140.818,85.972,146.646,85.972,156.606"/>
<path fill="#00517E" d="M160.763,130.542v27.334c0,7.95,4.354,13.996,12.622,13.996c7.942,0,13.344-6.681,13.344-14.622v-26.708
	h12.822v52.343h-11.548l-0.844-7.099c-5.415,5.298-10.382,7.838-17.697,7.838c-12.509,0-21.616-9.43-21.616-25.635v-27.447H160.763z
	"/>
<path fill="#00517E" d="M256.496,182.78v-27.34c0-7.942-4.353-13.982-12.617-13.982c-7.942,0-13.348,6.676-13.348,14.618v26.704
	h-12.817v-52.344h11.543l0.848,7.102c5.293-5.197,10.595-7.844,17.171-7.844c12.286,0,22.146,9.219,22.146,25.646v27.439H256.496z"
	/>
<path fill="#00517E" d="M333.483,176.104c-6.037,5.937-12.395,8.268-20.133,8.268c-15.148,0-27.762-9.116-27.762-27.662
	c0-18.536,12.613-27.65,27.762-27.65c7.416,0,13.139,2.114,18.863,7.735l-8.155,8.581c-3.075-2.748-6.885-4.132-10.486-4.132
	c-8.694,0-15.049,6.359-15.049,15.466c0,9.96,6.772,15.262,14.827,15.262c4.132,0,8.264-1.161,11.452-4.344L333.483,176.104z"/>
<path fill="#00517E" d="M360.802,108.609v29.034c4.658-6.04,10.377-7.839,16.314-7.839c14.831,0,21.407,10.057,21.407,25.419v27.557
	h-12.931v-27.439c0-9.539-4.98-13.566-11.869-13.566c-7.629,0-12.922,6.463-12.922,14.302v26.704h-12.939v-74.171H360.802z"/>
<rect x="412.533" y="192.696" fill="#00517E" width="78.81" height="11.344"/>
<path fill="#00517E" d="M545.835,176.104c-6.036,5.937-12.396,8.268-20.12,8.268c-15.161,0-27.771-9.116-27.771-27.662
	c0-18.536,12.609-27.65,27.771-27.65c7.411,0,13.136,2.114,18.858,7.735l-8.168,8.581c-3.066-2.748-6.889-4.132-10.481-4.132
	c-8.698,0-15.049,6.359-15.049,15.466c0,9.96,6.776,15.262,14.84,15.262c4.127,0,8.256-1.161,11.43-4.344L545.835,176.104z"/>
<path fill="#00517E" d="M610.074,156.71c0,15.049-10.277,27.236-27.235,27.236s-27.126-12.188-27.126-27.236
	c0-14.936,10.382-27.23,27.021-27.23C599.371,129.479,610.074,141.774,610.074,156.71 M568.638,156.71
	c0,7.951,4.772,15.371,14.201,15.371c9.43,0,14.2-7.42,14.2-15.371c0-7.837-5.51-15.466-14.2-15.466
	C573.51,141.244,568.638,148.873,568.638,156.71"/>
<path fill="#00517E" d="M679.32,108.714v74.066h-12.078l-0.849-7.203c-4.023,6.246-10.486,8.369-16.845,8.369
	c-15.361,0-26.922-10.169-26.922-27.34c0-18.006,11.339-27.338,26.6-27.338c5.512,0,14.092,2.973,17.167,8.375v-28.93H679.32z
	 M635.562,156.606c0,9.116,6.567,15.365,14.836,15.365c8.154,0,15.148-5.928,15.148-15.365c0-9.108-6.994-15.258-15.148-15.258
	C642.129,141.349,635.562,147.177,635.562,156.606"/>
<path fill="#00517E" d="M707.334,161.277c0.853,6.454,6.472,11.121,15.579,11.121c4.775,0,11.021-1.806,13.983-4.876l8.276,8.155
	c-5.515,5.728-14.526,8.481-22.468,8.481c-18.016,0-28.715-11.131-28.715-27.875c0-15.889,10.804-27.333,27.762-27.333
	c17.48,0,28.396,10.806,26.374,32.326H707.334z M735.735,150.568c-0.849-6.784-6.146-10.173-13.561-10.173
	c-6.986,0-12.71,3.389-14.623,10.173H735.735z"/>
<path fill="#00517E" d="M462.758,128.157c-1.183-0.324-2.466,0.241-2.844,1.259l-0.205,0.56l-8.22,26.16l-8.037-26.394l-0.227-0.613
	c-0.365-1.022-1.627-1.603-2.826-1.279c-1.197,0.314-1.861,1.397-1.492,2.421l10.382,32.912c0.3,0.812,1.165,1.365,2.157,1.365
	h0.017c0.983,0,1.849-0.539,2.148-1.348l10.613-32.604C464.611,129.575,463.95,128.481,462.758,128.157"/>
<polygon fill="#00517E" points="455.534,130.575 447.24,130.575 451.237,145.968 "/>
<path fill="#00517E" d="M484.692,112.228l-9.435-14.038c0.988-12.565-0.821-29.484-21.732-49.854
	c-0.488-0.469-1.18-0.735-1.915-0.735c-0.733,0-1.425,0.266-1.913,0.735c-21.255,20.694-22.86,37.898-21.681,50.683l-8.834,13.209
	c-0.322,0.476-0.418,1.046-0.287,1.589l7.338,26.731c0.234,0.878,1.074,1.539,2.118,1.666c1.03,0.126,2.061-0.301,2.583-1.088
	l7.241-10.962c1.148,1.352,2.022,1.911,2.362,2.094c0.413,0.208,0.878,0.321,1.356,0.321h19.424c0.54,0,1.045-0.13,1.467-0.391
	c0.273-0.165,1.287-0.838,2.613-2.53l7.542,11.464c0.462,0.695,1.309,1.112,2.218,1.112c0.122,0,0.244-0.008,0.36-0.021
	c1.04-0.127,1.885-0.788,2.128-1.666l7.315-26.731C485.109,113.274,485.01,112.704,484.692,112.228 M429.699,134.12l-5.593-20.468
	l5.667-8.468l5.798,20.052L429.699,134.12z M461.098,127.264c0,0.015,0,0.03,0,0.044c-0.317,0.391-0.596,0.708-0.801,0.906h-17.415
	c-0.422-0.404-1.117-1.207-1.927-2.525l-7.833-27.092c0-0.009-0.013-0.026-0.021-0.037c-1.044-11.524,0.392-26.879,18.51-45.422
	c17.781,18.202,19.407,33.272,18.576,44.576c-0.013,0.026-0.034,0.048-0.048,0.076L461.098,127.264z M474.176,134.099l-6.56-9.98
	c-0.052-0.089-0.134-0.161-0.204-0.244l6.024-19.646l6.337,9.427L474.176,134.099z"/>
<path fill="#00517E" d="M451.941,81.957c-5.241,0-9.498,4.267-9.498,9.493c0,5.236,4.257,9.494,9.498,9.494
	c5.22,0,9.481-4.258,9.481-9.494C461.423,86.223,457.161,81.957,451.941,81.957 M451.941,95.842c-2.422,0-4.4-1.966-4.4-4.393
	c0-2.42,1.979-4.389,4.4-4.389c2.423,0,4.384,1.969,4.384,4.389C456.325,93.876,454.364,95.842,451.941,95.842"/>
</svg>
